<?xml version="1.0" standalone="no"?>
<!DOCTYPE svg PUBLIC "-//W3C//DTD SVG 20010904//EN"
 "http://www.w3.org/TR/2001/REC-SVG-20010904/DTD/svg10.dtd">
<svg version="1.0" xmlns="http://www.w3.org/2000/svg"
 width="1024.000000pt" height="1024.000000pt" viewBox="0 0 1024.000000 1024.000000"
 preserveAspectRatio="xMidYMid meet">
<metadata>
Created by potrace 1.11, written by Peter Selinger 2001-2013
</metadata>
<g transform="translate(0.000000,1024.000000) scale(0.100000,-0.100000)"
fill="#000000" stroke="none">
<path d="M2340 7313 c-628 -35 -1140 -430 -1399 -1080 -21 -54 -44 -116 -51
-138 -24 -82 -50 -180 -50 -192 0 -10 92 -13 429 -13 l428 0 16 79 c66 327
292 592 538 628 242 36 425 -99 496 -367 18 -67 24 -269 10 -320 -3 -14 -11
-41 -16 -60 -48 -184 -265 -531 -495 -791 -33 -38 -60 -70 -149 -173 -57 -65
-240 -260 -410 -437 -67 -69 -187 -194 -267 -278 -80 -84 -170 -179 -200 -210
-101 -106 -376 -395 -419 -441 -24 -25 -111 -117 -194 -204 -84 -88 -161 -169
-172 -181 -11 -12 -40 -43 -65 -68 l-44 -47 1410 0 1410 0 24 153 c12 83 24
161 26 172 2 10 6 37 9 60 3 22 10 65 15 95 9 52 13 75 26 160 3 19 8 43 11
53 4 16 -33 17 -684 17 l-688 0 175 171 c511 498 807 798 941 949 340 387 542
784 587 1155 11 93 7 344 -6 400 -7 28 -14 61 -17 74 -23 124 -114 318 -191
408 -11 12 -35 41 -54 64 -47 56 -165 152 -248 200 -204 119 -462 176 -732
162z"/>
<path d="M4339 7195 c0 -5 -2 -21 -5 -35 -8 -48 -43 -265 -49 -305 -3 -22 -10
-65 -15 -95 -5 -30 -12 -75 -15 -100 -3 -25 -19 -124 -35 -220 -16 -96 -31
-193 -34 -215 -4 -22 -8 -51 -11 -65 -2 -14 -6 -41 -9 -60 -3 -19 -12 -80 -21
-135 -9 -55 -18 -111 -20 -125 -3 -26 -29 -189 -50 -315 -2 -11 -6 -40 -9 -65
-4 -25 -8 -52 -10 -60 -1 -8 -6 -37 -10 -65 -4 -27 -11 -72 -16 -100 -5 -27
-12 -68 -15 -90 -3 -22 -14 -94 -25 -160 -21 -128 -65 -414 -75 -480 -3 -22
-8 -51 -11 -65 -10 -55 -11 -61 -30 -200 -3 -19 -7 -42 -9 -50 -2 -8 -7 -35
-10 -60 -3 -25 -8 -56 -10 -70 -2 -14 -14 -83 -25 -155 -11 -71 -23 -141 -25
-155 -2 -14 -7 -43 -10 -65 -3 -22 -8 -51 -10 -65 -3 -14 -7 -43 -11 -65 -3
-22 -11 -78 -19 -125 -8 -47 -16 -101 -19 -120 -3 -19 -8 -46 -10 -60 -3 -14
-10 -61 -16 -105 -6 -44 -14 -90 -17 -103 l-5 -22 1083 2 1084 3 17 105 c9 58
19 121 22 140 2 19 11 76 20 125 8 50 18 113 21 140 4 28 8 57 10 65 2 8 7 38
11 65 3 28 8 53 11 57 2 5 -300 8 -673 8 l-676 0 7 46 c3 25 8 53 9 62 13 69
16 92 21 127 9 60 15 94 25 155 5 30 12 75 15 100 3 25 10 68 15 95 5 28 12
68 15 90 3 23 7 50 9 60 2 11 7 42 10 68 4 27 9 56 11 65 1 10 11 69 20 132
10 63 21 119 25 124 5 4 298 9 651 10 l643 1 12 65 c6 36 14 83 17 105 4 22
18 114 32 205 14 91 28 179 31 195 2 17 8 54 13 83 4 28 5 52 2 53 -3 0 -295
1 -649 1 l-643 1 6 36 c3 20 7 46 9 56 6 31 16 97 21 130 4 31 13 93 21 135 2
14 6 45 10 70 3 25 7 52 9 60 3 8 14 76 25 150 11 74 22 144 24 155 2 11 7 44
11 73 5 38 11 52 23 53 10 1 312 2 674 3 361 0 658 3 661 6 2 3 9 43 16 90 11
78 18 119 36 235 3 22 17 106 31 186 13 81 24 157 24 170 l0 24 -1080 0 c-714
0 -1080 -3 -1081 -10z"/>
<path d="M7064 7199 c-3 -6 -8 -30 -24 -134 -13 -85 -18 -114 -30 -185 -5 -30
-12 -75 -15 -100 -4 -25 -13 -85 -21 -135 -8 -49 -17 -104 -19 -120 l-5 -31
771 1 c424 0 773 -3 776 -8 2 -4 -6 -22 -19 -40 -14 -18 -65 -90 -114 -162
-402 -587 -520 -759 -584 -850 -45 -63 -122 -176 -369 -535 -69 -102 -156
-228 -192 -280 -156 -226 -509 -740 -549 -800 -25 -36 -47 -67 -50 -70 -3 -3
-23 -32 -45 -65 -22 -33 -44 -64 -48 -70 -4 -5 -56 -80 -114 -165 -91 -134
-238 -348 -282 -410 -13 -20 -5 -20 1502 -20 834 0 1518 3 1520 8 3 4 8 31 11
61 4 29 8 57 10 60 3 4 7 34 11 66 3 33 8 67 10 75 3 8 7 33 10 55 11 75 15
100 20 125 2 14 7 43 10 65 4 22 8 49 10 60 2 11 6 42 10 69 3 28 8 53 11 58
3 4 -387 8 -866 8 l-871 0 83 123 c46 67 87 127 91 132 5 6 46 64 91 130 150
220 279 409 343 500 34 50 91 133 127 185 260 382 346 506 353 515 4 6 37 53
73 105 74 109 154 227 172 252 6 9 85 124 175 255 89 131 166 243 170 248 5 6
37 53 73 105 35 52 91 133 123 180 32 47 83 121 113 165 30 44 100 145 155
225 177 257 239 349 239 352 0 6 -2842 3 -2846 -3z"/>
</g>
</svg>
